<?xml version="1.0" encoding="utf-8"?>
<svg id="master-artboard" viewBox="0 0 1400 980" version="1.1" xmlns="http://www.w3.org/2000/svg" x="0px" y="0px" style="enable-background:new 0 0 1400 980;" width="1400px" height="980px"><g transform="matrix(2.5456528999467842, 0, 0, 2.5456528999467842, 209.99992965625188, 0)"><g>
	<g id="Arrow_Down_Circle">
		<path d="M192.485,0C86.185,0,0,86.173,0,192.485c0,106.3,86.185,192.485,192.485,192.485&#10;&#9;&#9;&#9;c106.312,0,192.485-86.185,192.485-192.485C384.97,86.173,298.797,0,192.485,0z M192.485,360.909&#10;&#9;&#9;&#9;c-93.018,0-168.424-75.406-168.424-168.424S99.467,24.061,192.485,24.061s168.424,75.406,168.424,168.424&#10;&#9;&#9;&#9;S285.503,360.909,192.485,360.909z" style="fill: rgb(255, 255, 255);"/>
		<path d="M268.095,209.243l-63.46,62.558V84.212c0-6.641-5.438-12.03-12.151-12.03c-6.713,0-12.151,5.39-12.151,12.03v187.589&#10;&#9;&#9;&#9;l-63.46-62.558c-4.74-4.692-12.439-4.692-17.179,0c-4.74,4.704-4.74,12.319,0,17.011l84.2,82.997&#10;&#9;&#9;&#9;c2.25,2.25,5.414,3.537,8.59,3.537c3.164,0,6.328-1.299,8.59-3.525l84.2-82.997c4.752-4.704,4.74-12.319,0-17.011&#10;&#9;&#9;&#9;C280.535,204.551,272.835,204.551,268.095,209.243z" style="fill: rgb(255, 255, 255);"/>
	</g>
	<g>
	</g>
	<g>
	</g>
	<g>
	</g>
	<g>
	</g>
	<g>
	</g>
	<g>
	</g>
</g><g>
</g><g>
</g><g>
</g><g>
</g><g>
</g><g>
</g><g>
</g><g>
</g><g>
</g><g>
</g><g>
</g><g>
</g><g>
</g><g>
</g><g>
</g></g></svg>