<?xml version="1.0" encoding="utf-8"?>
<svg id="master-artboard" viewBox="0 0 1400 980" version="1.1" xmlns="http://www.w3.org/2000/svg" x="0px" y="0px" style="enable-background:new 0 0 1400 980;" width="1400px" height="980px"><rect id="ee-background" x="0" y="0" width="1400" height="980" style="fill: white; fill-opacity: 0; pointer-events: none;"/><g transform="matrix(3.1583969593048096, 0, 0, 3.1583969593048096, 203.89944188047252, -2.842170943040401e-14)"><path d="M155.142,0C69.597,0,0,69.597,0,155.142s69.597,155.142,155.142,155.142s155.142-69.597,155.142-155.142&#10;&#9;S240.688,0,155.142,0z M130.392,212.864c0,9.665-7.835,17.5-17.5,17.5s-17.5-7.835-17.5-17.5v-115c0-9.665,7.835-17.5,17.5-17.5&#10;&#9;s17.5,7.835,17.5,17.5V212.864z M209.392,212.864c0,9.665-7.835,17.5-17.5,17.5s-17.5-7.835-17.5-17.5v-115&#10;&#9;c0-9.665,7.835-17.5,17.5-17.5s17.5,7.835,17.5,17.5V212.864z" style="fill: rgb(255, 255, 255);"/><g>
</g><g>
</g><g>
</g><g>
</g><g>
</g><g>
</g><g>
</g><g>
</g><g>
</g><g>
</g><g>
</g><g>
</g><g>
</g><g>
</g><g>
</g></g></svg>